<?xml version="1.0" encoding="utf-8"?>
<!-- Generator: Adobe Illustrator 18.1.0, SVG Export Plug-In . SVG Version: 6.00 Build 0)  -->
<!DOCTYPE svg PUBLIC "-//W3C//DTD SVG 1.1//EN" "http://www.w3.org/Graphics/SVG/1.1/DTD/svg11.dtd">
<svg version="1.1" id="Layer_1" xmlns="http://www.w3.org/2000/svg" xmlns:xlink="http://www.w3.org/1999/xlink" x="0px" y="0px"
	 viewBox="0 0 48 48" enable-background="new 0 0 48 48" xml:space="preserve">
<path fill="#FFFFFF" d="M17.5,41.5C7.8,41.5,0,33.6,0,24S7.8,6.5,17.5,6.5c6.6,0,12.3,3.6,15.2,8.9c0.7-0.1,1.5-0.2,2.2-0.2
	c7.2,0,13.1,5.9,13.1,13.1c0,7.2-5.9,13.1-13.1,13.1C31.9,41.5,20.9,41.5,17.5,41.5z M34.9,37.1c4.8,0,8.7-3.9,8.7-8.7
	c0-4.8-3.9-8.7-8.7-8.7c-1.7,0-3.4,0.5-4.7,1.4c-1.3-5.8-6.5-10.1-12.7-10.1c-7.2,0-13.1,5.9-13.1,13.1c0,7.2,5.9,13.1,13.1,13.1
	C21.4,37.1,31.6,37.1,34.9,37.1z"/>
</svg>
